<?xml version="1.0" standalone="no"?>
<!DOCTYPE svg PUBLIC "-//W3C//DTD SVG 1.1//EN" "http://www.w3.org/Graphics/SVG/1.1/DTD/svg11.dtd" >
<svg xmlns="http://www.w3.org/2000/svg" xmlns:xlink="http://www.w3.org/1999/xlink" version="1.1">
<metadata></metadata>
<defs>
<font id="hwaiteusatangregular" horiz-adv-x="920" >
<font-face units-per-em="2048" ascent="1758" descent="-290" />
<missing-glyph horiz-adv-x="540" />
<glyph horiz-adv-x="0" />
<glyph horiz-adv-x="682" />
<glyph unicode=" "  horiz-adv-x="540" />
<glyph unicode="&#x09;" horiz-adv-x="540" />
<glyph unicode="&#xa0;" horiz-adv-x="540" />
<glyph unicode="!" horiz-adv-x="912" d="M72 1412q6 30 17 59t29 51q48 46 96 50t92 -20t81 -70t63 -98q32 76 96 132t126 70t106 -26t38 -156q-10 -126 -37 -250t-61 -234q-32 -108 -65 -195t-51 -137q-22 -24 -45 -28t-55 8q-58 50 -138 158t-150 234q-68 126 -112 249t-30 203zM192 1388q-6 -58 25 -145 t79 -183t107 -188t111 -154q4 -6 10 -5t8 9q24 84 60 196t64 220t36 195t-22 121l-10 2q-44 -12 -73 -51t-45 -83q-18 -46 -26 -89t-8 -61q-10 -32 -22 -40t-28 2q-16 2 -31 14t-15 34q-2 16 -22 58t-48 86t-57 79t-47 35q-22 0 -31 -17t-15 -35zM364 311q-2 61 32 109 q0 12 12 31t38 31q126 18 189 -39t75 -135q10 -78 -23 -147t-97 -75q-68 -6 -119 27t-77 85q-28 52 -30 113zM485 325q-5 -27 3 -57q6 -28 26 -48t52 -14q2 0 11 21t11 49t-11 54t-53 36l-12 -4q-22 -10 -27 -37z" />
<glyph unicode="&#x22;" horiz-adv-x="752" d="M156 1342q0 82 18 112t54 30q42 0 64 -28t22 -94q0 -42 -3 -97t-9 -105q-8 -50 -22 -84t-38 -34q-30 0 -48 33t-26 81q-8 46 -10 98t-2 88zM432 1342q0 82 18 112t52 30q44 0 65 -28t21 -94q0 -42 -3 -97t-9 -105q-8 -50 -22 -84t-36 -34q-30 0 -48 33t-26 81 q-8 46 -10 98t-2 88z" />
<glyph unicode="#" horiz-adv-x="992" d="M50 482q2 30 22 47t50 17h84l34 336h-80q-30 0 -49 17t-19 55q2 30 27 48t51 18h82l12 144q2 26 20 48t54 22q30 0 50 -22t18 -50l-12 -142h250l12 144q2 26 22 48t56 22q30 0 47 -22t15 -50l-12 -142h82q28 0 44 -18t14 -50q0 -36 -22 -53t-48 -17h-82l-34 -336h80 q28 0 46 -17t16 -49q-4 -38 -24 -56t-48 -18h-80l-16 -154q0 -30 -20 -48t-50 -18q-36 0 -53 18t-17 48l14 154h-250l-14 -154q0 -30 -23 -48t-53 -18q-36 0 -51 18t-15 48l14 154h-80q-30 0 -49 20t-15 56zM346 546h252l32 336h-250z" />
<glyph unicode="$" d="M76 484q-4 20 11 43t61 23q32 0 51 -23t19 -43q0 -78 49 -118t119 -50v324q-128 12 -195 86t-67 182q0 110 72 185t190 93v80q0 30 18 50t54 20q30 0 48 -20t18 -50v-78q130 -12 219 -81t89 -203q0 -24 -17 -42t-41 -18q-36 0 -57 15t-21 45q0 66 -52 103t-120 49v-296 q152 -14 230 -87t78 -189q0 -126 -80 -207t-228 -99v-38q0 -28 -20 -49t-50 -21q-36 0 -52 21t-16 49v46q-62 6 -118 28t-98 60q-44 36 -69 89t-25 121zM264 908q0 -56 34 -90t88 -48v282q-50 -14 -86 -51t-36 -93zM524 316q78 12 123 56t45 112q0 60 -46 95t-122 43v-306z " />
<glyph unicode="%" horiz-adv-x="1200" d="M116 952q0 72 55 129t137 57q78 0 133 -57t55 -129q0 -76 -55 -132t-133 -56q-82 0 -137 56t-55 132zM246 952q0 -24 19 -41t43 -17q22 0 41 17t19 41q0 20 -19 38t-41 18q-24 0 -43 -18t-19 -38zM267 115q-5 31 1 53l528 986q8 20 35 39t61 1q26 -14 35 -41t-5 -55 l-518 -978q-18 -32 -47 -47t-57 -1q-28 12 -33 43zM700 284q0 72 55 129t133 57q80 0 136 -57t56 -129q0 -74 -56 -129t-136 -55q-78 0 -133 55t-55 129zM828 284q0 -22 18 -40t42 -18t43 18t19 40q0 20 -19 38t-43 18t-42 -18t-18 -38z" />
<glyph unicode="&#x26;" horiz-adv-x="992" d="M72 496q0 78 45 148t119 110q-54 36 -83 88t-29 114q0 50 23 96t63 82t93 58t115 22q60 0 113 -22t93 -58t64 -82t24 -96q0 -64 -31 -115t-85 -87q44 -24 79 -61t59 -79l102 94q20 18 44 13t42 -21q16 -20 9 -58t-23 -56l-148 -138l134 -124q28 -18 33 -51t-5 -51 q-12 -14 -35 -27t-51 5l-140 118q-48 -62 -121 -99t-157 -37q-72 0 -135 26t-109 68q-48 44 -75 101t-27 119zM218 496q0 -66 59 -122t141 -56t142 56t60 122t-60 121t-142 55t-141 -55t-59 -121zM260 956q0 -46 48 -88t110 -42q60 0 109 42t49 88q0 42 -49 85t-109 43 q-62 0 -110 -43t-48 -85z" />
<glyph unicode="'" horiz-adv-x="488" d="M156 1338q0 82 18 112t54 30q42 0 64 -28t22 -94q0 -42 -3 -97t-9 -105q-8 -50 -22 -84t-38 -34q-30 0 -48 33t-26 81q-8 46 -10 98t-2 88z" />
<glyph unicode="(" horiz-adv-x="560" d="M92 674q0 216 83 385t211 313q12 28 44 34t62 -10q24 -18 25 -53t-11 -53q-54 -64 -103 -131t-85 -141q-38 -76 -59 -161t-21 -183q0 -222 76 -363t186 -235q16 -20 23 -60t-19 -64q-28 -18 -57 -12t-57 28q-138 132 -218 305t-80 401z" />
<glyph unicode=")" horiz-adv-x="560" d="M75 16q5 40 23 60q108 94 187 235t79 363q0 98 -23 183t-59 161q-38 74 -87 141t-101 131q-14 18 -12 53t26 53q28 16 60 10t48 -34q126 -144 209 -313t83 -385q0 -228 -79 -401t-217 -305q-30 -22 -59 -28t-57 12q-26 24 -21 64z" />
<glyph unicode="*" horiz-adv-x="808" d="M80 674q0 32 19 52t49 20h122l-92 98q-14 22 -16 43t20 45q22 26 50 25t46 -25l122 -152l126 156q14 18 38 20t50 -22q16 -18 16 -43t-12 -47l-90 -98h122q28 0 45 -20t17 -52q0 -34 -17 -52t-45 -18h-120l92 -98q18 -22 16 -47t-20 -49q-28 -26 -49 -26t-39 26l-130 164 l-122 -156q-16 -22 -42 -28t-50 20q-22 24 -24 49t16 47l90 98h-120q-30 0 -49 18t-19 52z" />
<glyph unicode="+" d="M76 682q0 32 19 52t49 20h252v268q0 30 17 50t53 20q30 0 52 -20t22 -50v-268h226q28 0 49 -20t21 -52q0 -34 -21 -51t-49 -17h-226v-278q0 -30 -22 -48t-52 -18q-36 0 -53 18t-17 48v278h-252q-30 0 -49 17t-19 51z" />
<glyph unicode="," horiz-adv-x="476" d="M120 220q0 46 36 80t84 34q44 0 77 -34t39 -78q0 -44 -9 -87t-23 -71q-14 -30 -33 -51t-35 -33q-24 -14 -41 -19t-41 -1q-22 8 -19 24t19 22q14 6 27 22t21 34t9 33t-9 19h-22q-48 6 -64 39t-16 67z" />
<glyph unicode="-" d="M76 682q0 32 19 52t49 20h622q28 0 49 -20t21 -52q0 -34 -21 -51t-49 -17h-622q-30 0 -49 17t-19 51z" />
<glyph unicode="." horiz-adv-x="452" d="M108 228q0 46 35 80t89 34q44 0 80 -34t36 -80q0 -42 -36 -78t-80 -36q-54 0 -89 36t-35 78z" />
<glyph unicode="/" horiz-adv-x="984" d="M152 116q-6 32 0 52l530 986q8 20 34 39t62 1q22 -14 31 -41t-3 -55l-520 -978q-16 -32 -46 -47t-60 -1q-22 12 -28 44z" />
<glyph unicode="0" d="M46 682q0 92 33 174t89 146q58 62 133 99t161 37q84 0 160 -37t132 -99q58 -64 92 -146t34 -174t-34 -174t-92 -144q-56 -62 -132 -98t-160 -36q-86 0 -161 36t-133 98q-56 62 -89 144t-33 174zM188 682q0 -64 22 -120t58 -98q38 -42 88 -66t106 -24t105 24t87 66t60 98 t22 120q0 62 -22 118t-60 98t-87 68t-105 26t-106 -26t-88 -68q-36 -42 -58 -98t-22 -118z" />
<glyph unicode="1" d="M252 1106q0 36 19 53t49 17h162q30 0 53 -19t23 -51v-846q0 -30 -23 -50t-53 -20q-36 0 -53 20t-17 50v778h-92q-30 0 -49 18t-19 50z" />
<glyph unicode="2" d="M80 868q0 76 29 134t79 96t115 58t135 20q60 0 124 -20t116 -60t85 -103t33 -147q0 -88 -30 -151t-80 -103q-50 -42 -116 -61t-140 -19h-82v-144q0 -22 7 -30t33 -8h374q30 0 48 -21t18 -49q0 -32 -18 -51t-52 -19h-408q-72 0 -109 35t-37 107v196q0 66 36 96t118 30h68 q100 0 165 43t65 149q0 98 -68 145t-150 47q-96 0 -156 -43t-60 -131q0 -38 -19 -56t-59 -18q-36 0 -50 16t-14 62z" />
<glyph unicode="3" d="M84 464q0 30 15 50t53 20q32 0 55 -19t23 -43q0 -64 66 -103t158 -39q38 0 78 9t72 29q34 18 55 45t21 63q0 72 -69 109t-157 37h-84q-32 0 -50 19t-18 55q0 30 18 47t50 17h88q90 0 146 36t56 104q0 54 -57 96t-145 42q-94 0 -148 -42t-54 -96q0 -34 -18 -55t-56 -21 q-36 0 -53 23t-17 53q0 114 92 195t254 81q70 0 133 -21t111 -57q46 -36 74 -87t28 -111q0 -66 -30 -122t-80 -84q58 -20 96 -78t38 -140q0 -68 -33 -121t-87 -89q-52 -38 -119 -57t-135 -19q-74 0 -141 20t-117 56q-52 36 -82 87t-30 111z" />
<glyph unicode="4" d="M76 596l124 536q12 30 32 52t50 22q34 0 53 -31t9 -67l-122 -516q-6 -22 1 -32t23 -10h290v460q0 30 21 50t53 20q30 0 50 -20t20 -50v-460h120q32 0 52 -16t20 -50q0 -32 -20 -53t-52 -21h-120v-154q0 -30 -20 -48t-50 -18q-32 0 -53 18t-21 48v154h-290q-116 0 -151 47 t-19 139z" />
<glyph unicode="5" d="M80 500q0 44 14 61t50 17q40 0 59 -19t19 -55q0 -90 60 -132t156 -42q82 0 150 46t68 142q0 108 -65 152t-165 44h-68q-82 0 -118 28t-36 96v198q0 70 37 105t109 35h328q34 0 52 -19t18 -51q0 -30 -18 -49t-48 -19h-294q-26 0 -33 -10t-7 -30v-146h82q74 0 140 -19 t116 -61q50 -40 80 -103t30 -151q0 -84 -33 -146t-85 -102q-52 -42 -116 -61t-124 -19q-70 0 -135 19t-115 57q-50 40 -79 98t-29 136z" />
<glyph unicode="6" d="M96 514v316q0 78 29 141t79 109q48 46 109 71t125 25h220q30 0 48 -22t18 -52q0 -26 -19 -45t-47 -19h-220q-78 0 -137 -58t-59 -130v-86q36 32 81 53t99 21h88q68 0 127 -25t103 -69t70 -104t26 -130q0 -66 -27 -124t-71 -102t-103 -69t-121 -25h-92q-68 0 -127 25 t-103 71q-46 44 -71 103t-25 125zM242 510q0 -66 51 -123t129 -57h88q76 0 129 56t53 124q0 74 -55 131t-127 57h-88q-66 0 -123 -55t-57 -133z" />
<glyph unicode="7" d="M100 1106q0 32 20 51t50 19h372q122 0 190 -70t36 -200l-176 -656q-12 -36 -32 -48t-50 -12q-36 0 -55 21t-11 51l168 620q24 90 2 123t-100 33h-344q-30 0 -50 17t-20 51z" />
<glyph unicode="8" d="M76 504q0 80 45 150t121 110q-36 36 -57 81t-21 93q0 102 84 176t206 74q120 0 205 -74t85 -176q0 -48 -23 -94t-59 -80q76 -40 123 -110t47 -150q0 -66 -30 -126t-82 -106q-50 -46 -119 -72t-147 -26q-80 0 -149 26t-119 72q-52 46 -81 106t-29 126zM226 500 q0 -72 66 -129t162 -57q94 0 162 57t68 129t-68 128t-162 56q-96 0 -162 -56t-66 -128zM306 938q0 -48 44 -80t104 -32q58 0 104 34t46 78q0 48 -46 82t-104 34q-60 0 -104 -34t-44 -82z" />
<glyph unicode="9" d="M92 854q0 64 26 123t70 103t103 70t123 26h92q66 0 125 -26t103 -72q46 -44 72 -103t26 -125v-314q0 -78 -30 -142t-78 -110q-50 -44 -111 -69t-123 -25h-220q-30 0 -48 23t-18 53q0 22 19 43t47 21h220q76 0 137 56t61 128v88q-40 -32 -85 -52t-97 -20h-88 q-70 0 -129 24t-103 68q-44 42 -69 102t-25 130zM238 854q0 -74 54 -129t126 -55h88q66 0 124 54t58 130q0 66 -52 125t-130 59h-88q-76 0 -128 -59t-52 -125z" />
<glyph unicode=":" horiz-adv-x="504" d="M138 468q0 46 33 80t87 34q48 0 83 -34t35 -80q0 -42 -35 -78t-83 -36q-54 0 -87 36t-33 78zM138 938q0 42 33 79t87 37q48 0 83 -37t35 -79q0 -48 -35 -83t-83 -35q-54 0 -87 35t-33 83z" />
<glyph unicode=";" horiz-adv-x="504" d="M130 938q0 42 33 79t87 37q48 0 83 -37t35 -79q0 -48 -35 -83t-83 -35q-54 0 -87 35t-33 83zM142 460q0 46 34 80t82 34q46 0 79 -34t39 -78q0 -44 -9 -88t-25 -70q-12 -30 -32 -51t-36 -33q-24 -14 -40 -19t-40 -1q-22 8 -19 24t19 22q14 4 27 20t21 34t9 33t-11 21h-18 q-52 6 -66 39t-14 67z" />
<glyph unicode="&#x3c;" horiz-adv-x="888" d="M75 677q-1 63 45 103l554 506q24 24 51 29t55 -19q32 -36 17 -67t-41 -61l-534 -494l550 -492q24 -28 28 -56t-18 -52q-22 -20 -50 -24t-52 18l-556 508q-48 38 -49 101z" />
<glyph unicode="=" horiz-adv-x="928" d="M76 524q0 30 19 50t49 20h622q28 0 49 -20t21 -50q0 -36 -21 -53t-49 -17h-622q-30 0 -49 17t-19 53zM76 842q0 32 19 50t49 18h622q28 0 49 -18t21 -50q0 -34 -21 -52t-49 -18h-622q-30 0 -49 18t-19 52z" />
<glyph unicode="&#x3e;" horiz-adv-x="888" d="M76 126q2 28 26 56l554 492l-538 494q-28 30 -42 61t18 67q28 24 54 19t52 -29l556 -506q46 -40 45 -103t-49 -101l-556 -508q-24 -22 -53 -18t-49 24q-20 24 -18 52z" />
<glyph unicode="?" horiz-adv-x="820" d="M50 1098q0 78 29 136t79 96t114 58t134 20q60 0 124 -20t116 -60t85 -103t33 -147q0 -86 -28 -149t-74 -103q-46 -42 -105 -62t-121 -20v-100q0 -40 -15 -59t-59 -19q-36 0 -53 21t-17 57v114q0 68 21 98t101 30h16q82 0 138 48t56 144q0 98 -68 144t-150 46 q-98 0 -158 -42t-60 -132q0 -36 -18 -55t-60 -19q-34 0 -47 17t-13 61zM197 311q-1 61 33 109q0 12 11 31t37 31q126 18 189 -39t75 -135q10 -78 -23 -147t-97 -75q-68 -6 -119 27t-77 85q-28 52 -29 113zM317 325q-5 -27 3 -57q6 -28 27 -48t53 -14q2 0 10 21t10 49t-11 54 t-53 36l-12 -4q-22 -10 -27 -37z" />
<glyph unicode="@" horiz-adv-x="1076" d="M76 678q0 92 31 181t91 159q60 68 146 111t194 43q110 0 195 -43t143 -111q58 -70 89 -159t31 -181q0 -48 -15 -99t-43 -93q-26 -42 -64 -69t-84 -27q-28 0 -52 17t-38 41q-26 -22 -72 -42t-90 -20q-108 2 -183 83t-75 209q0 52 16 104t50 94q32 42 80 68t112 26 q52 0 99 -24t83 -64q34 -40 55 -93t21 -111v-70q0 -12 -3 -28t-5 -30q-2 -16 1 -26t15 -10t23 16t17 42q8 24 12 53t4 53q0 68 -22 132t-62 116q-42 50 -102 81t-136 31q-80 0 -141 -31t-101 -81q-42 -52 -63 -116t-21 -132q0 -72 24 -137t68 -115t104 -79t130 -29 q66 0 136 6t144 48q24 14 47 5t33 -29t2 -47t-44 -49q-62 -38 -145 -52t-173 -14q-100 0 -185 41t-147 109t-96 157t-34 185zM410 674q0 -60 30 -110t98 -50q70 0 98 47t28 113q0 60 -28 111t-98 51q-66 0 -97 -51t-31 -111z" />
<glyph unicode="A" d="M76 270v480q0 90 26 167t76 135q48 58 116 91t152 33q174 0 280 -118t106 -308v-490q0 -30 -16 -50t-54 -20q-40 0 -53 20t-13 50v306h-478v-296q0 -34 -17 -57t-53 -23q-44 0 -58 23t-14 57zM218 706h478v30q0 148 -74 225t-176 77q-92 0 -160 -81t-68 -229v-22z" />
<glyph unicode="B" d="M76 420v526q0 122 51 174t181 52h194q48 0 96 -18t88 -52t65 -85t25 -117q0 -62 -24 -120t-58 -82q54 -16 106 -68t52 -158q0 -146 -83 -214t-207 -68h-250q-130 0 -183 50t-53 180zM222 420q0 -60 16 -75t74 -15h230q84 0 125 31t41 111q0 70 -41 104t-107 34h-218 q-28 0 -47 19t-19 53q0 32 19 50t47 18h112q72 0 124 36t52 114q0 62 -44 100t-104 38h-188q-42 0 -57 -19t-15 -59v-540z" />
<glyph unicode="C" horiz-adv-x="964" d="M58 682q0 100 35 189t97 155q60 68 143 107t177 39q120 0 209 -55t151 -139q16 -30 9 -58t-33 -44q-34 -16 -55 -4t-33 32q-42 54 -108 94t-140 40q-64 0 -121 -30t-101 -78q-42 -50 -67 -114t-25 -134q0 -76 27 -140t71 -112t100 -74t116 -26q80 0 154 48t122 132 q24 20 43 22t43 -14q18 -22 20 -48t-6 -58q-66 -98 -161 -158t-215 -60q-94 0 -177 39t-143 105q-62 66 -97 155t-35 189z" />
<glyph unicode="D" horiz-adv-x="940" d="M76 460v646q0 24 15 47t57 23q36 0 55 -22t19 -52v-634q0 -46 2 -74t14 -42t38 -18t74 -4h84q68 0 127 29t101 79q42 48 66 112t24 132q0 70 -25 134t-67 114q-42 48 -100 78t-126 30h-96q-32 0 -47 17t-15 47t14 52t44 22h104q98 0 181 -40t143 -108q60 -66 94 -156 t34 -190q0 -114 -37 -205t-97 -155q-62 -64 -144 -98t-174 -34h-88q-88 0 -142 10t-82 40q-30 30 -40 83t-10 137z" />
<glyph unicode="E" d="M76 456v454q0 80 10 132t40 82q28 30 80 41t136 11h420q28 0 49 -19t21 -51q0 -34 -22 -53t-50 -15h-414q-44 0 -69 -4t-37 -18q-12 -12 -15 -39t-3 -73v-440q0 -46 3 -72t15 -40t37 -18t69 -4h416q28 0 49 -18t21 -52q0 -32 -21 -51t-49 -19h-420q-86 0 -138 12t-82 42 q-28 30 -37 82t-9 130zM280 686q0 36 19 54t47 18h416q28 0 49 -18t21 -54q0 -30 -21 -49t-49 -19h-416q-28 0 -47 19t-19 49z" />
<glyph unicode="F" d="M76 252v658q0 80 10 131t38 81t81 42t137 12h416q36 0 53 -17t17 -49q0 -42 -18 -57t-52 -15h-416q-44 0 -68 -4t-36 -18q-12 -12 -14 -39t-2 -73v-652q0 -24 -24 -43t-54 -19t-49 18t-19 44zM276 664q0 24 17 47t37 23h432q24 0 43 -18t19 -56q0 -30 -19 -49t-47 -19 h-428q-20 0 -37 21t-17 51z" />
<glyph unicode="G" horiz-adv-x="1016" d="M58 682q0 98 35 186t97 156q60 68 143 108t177 40q120 0 209 -55t151 -139q16 -30 9 -58t-33 -44q-34 -16 -57 -4t-35 32q-42 54 -106 94t-138 40q-64 0 -122 -30t-102 -80t-69 -114t-25 -132q0 -70 25 -134t67 -114q44 -50 102 -79t124 -29q90 0 179 65t131 199 q4 18 -4 23t-22 5h-228q-22 0 -38 20t-16 48q0 26 16 49t38 23h276q54 0 88 -34t34 -92q-12 -90 -51 -171t-99 -141t-137 -95t-167 -35q-94 0 -176 38t-144 106q-60 66 -96 156t-36 192z" />
<glyph unicode="H" d="M76 256v850q0 30 19 50t53 20q30 0 52 -20t22 -50v-850q0 -30 -22 -48t-52 -18q-34 0 -53 18t-19 48zM276 678q0 32 18 54t48 22h346v352q0 30 20 50t50 20t52 -21t22 -45v-854q0 -32 -20 -49t-50 -17t-52 17t-22 53v354h-350q-28 0 -45 18t-17 46z" />
<glyph unicode="I" horiz-adv-x="736" d="M72 1110q0 26 16 46t38 20h448q24 0 43 -16t19 -54q0 -30 -19 -47t-47 -17h-138v-716h138q24 0 43 -16t19 -54q0 -30 -19 -48t-47 -18h-418q-24 0 -40 20t-16 50q0 24 16 45t40 21h140v716h-162q-22 0 -38 19t-16 49z" />
<glyph unicode="J" horiz-adv-x="880" d="M76 500q-6 30 17 52t51 22q36 0 57 -22t21 -52q0 -80 41 -127t107 -47q60 0 107 45t47 129v538h-258q-22 0 -38 19t-16 49q0 26 16 48t38 22h516q24 0 43 -17t19 -57q0 -30 -19 -47t-47 -17h-110v-538q0 -144 -87 -227t-211 -83q-62 0 -115 23t-93 65t-63 99t-23 123z " />
<glyph unicode="K" horiz-adv-x="840" d="M76 256v850q0 30 19 50t53 20q30 0 50 -20t20 -50v-272l378 318q24 14 55 24q7 2 15 2q24 0 48 -24q14 -24 14 -45q0 -14 -6 -26q-16 -31 -34 -43l-414 -344l476 -372q24 -14 31 -43t-11 -53q-14 -26 -42 -36t-52 8l-458 356v-300q0 -30 -20 -48t-50 -18q-34 0 -53 18 t-19 48z" />
<glyph unicode="L" horiz-adv-x="880" d="M76 456v658q0 26 21 44t51 18t52 -19t22 -43v-650q0 -46 3 -73t15 -41t37 -17t69 -3h378q36 0 56 -14t20 -56q0 -32 -20 -51t-56 -19h-386q-80 0 -131 10t-81 40q-28 28 -39 80t-11 136z" />
<glyph unicode="M" horiz-adv-x="1184" d="M76 260v846q0 30 17 48t51 18q30 0 54 -18t24 -48q8 24 51 47t93 23q82 0 134 -36t98 -102q40 68 96 103t144 35q148 0 215 -105t67 -255v-556q0 -32 -20 -51t-52 -19q-34 0 -54 19t-20 51v552q0 86 -28 156t-112 70q-90 0 -127 -71t-39 -183v-524q0 -32 -17 -51t-53 -19 q-32 0 -53 19t-21 51v524q0 110 -35 182t-123 72q-90 0 -117 -66t-27 -152v-560q0 -32 -22 -51t-52 -19q-34 0 -53 19t-19 51z" />
<glyph unicode="N" d="M76 260v762q0 56 26 98t66 54q13 4 27 4q28 0 59 -16q46 -24 84 -98l350 -698v740q0 30 20 50t54 20q30 0 50 -20t20 -50v-802q0 -42 -29 -72t-69 -40q-11 -2 -23 -2q-29 0 -59 14q-42 20 -70 80l-360 718v-740q2 -30 -15 -51t-51 -21t-57 21t-23 49z" />
<glyph unicode="O" horiz-adv-x="1092" d="M41 620q-5 37 -5 73q0 61 14 119q20 94 76 174t146 134q64 48 147 59q54 7 94 7q22 0 39 -2q28 -8 44 -25t16 -49q0 -30 -21 -45t-59 -15q-12 1 -24 1q-40 0 -79 -15q-51 -20 -87 -38q-58 -34 -97 -92t-55 -128q-9 -41 -9 -85q0 -28 4 -56q9 -73 47 -135 q78 -132 217 -165q39 -9 79 -9q101 0 204 60q50 32 89 88t57 124q12 46 12 95q0 22 -2 45q-8 74 -48 144q-10 20 -17 36t-9 30t5 28t29 32q16 11 32 11q17 0 35 -13q33 -24 51 -50q54 -98 66 -201q4 -33 3 -64q0 -69 -17 -133q-24 -94 -83 -174t-147 -130q-90 -54 -188 -68 q-36 -5 -72 -5q-61 0 -120 15q-92 24 -172 83t-130 149q-52 90 -65 190z" />
<glyph unicode="P" d="M76 252v656q0 78 9 130t37 82t80 43t136 13h200q138 0 216 -82t78 -218q0 -144 -78 -223t-216 -79h-316v-322q0 -24 -22 -43t-52 -19t-51 19t-21 43zM222 714h316q64 0 109 40t45 122q0 76 -44 119t-110 43h-196q-46 0 -70 -4t-36 -18q-12 -12 -13 -39t-1 -73v-190z" />
<glyph unicode="Q" horiz-adv-x="1092" d="M49 620q-5 37 -5 73q0 61 14 119q22 94 78 174t144 134q64 48 147 59q54 7 94 7q23 0 41 -2q26 -8 42 -25t16 -49q0 -30 -21 -45t-59 -15q-12 1 -23 1q-39 0 -79 -15q-52 -20 -88 -38q-58 -34 -97 -92t-55 -128q-9 -41 -9 -85q0 -27 4 -56q9 -73 47 -135 q76 -132 215 -165q40 -9 80 -9q100 0 201 58l-166 172q-12 12 -13 40t17 46q18 20 45 26t45 -6l176 -180q52 80 60 186q1 12 1 25q0 94 -53 189q-10 20 -17 36t-9 30t5 28t29 32q17 10 33 10q18 0 35 -13q32 -25 48 -51q68 -133 68 -268q0 -19 -1 -38q-11 -154 -99 -268 l62 -62q16 -18 20 -42t-20 -56q-24 -22 -47 -25t-43 15l-76 72l-40 -28q-90 -54 -188 -68q-36 -5 -71 -5q-61 0 -119 15q-94 24 -174 83t-130 149q-52 90 -65 190z" />
<glyph unicode="R" d="M76 252v658q0 80 10 132t40 82q28 30 80 41t136 11h196q148 0 221 -84t73 -208q0 -78 -29 -146t-89 -98q54 -28 88 -96t34 -156v-136q0 -30 -22 -46t-52 -16t-48 16t-18 46v140q0 84 -50 133t-132 49h-292v-322q0 -22 -19 -42t-55 -20q-34 0 -53 20t-19 42zM222 714h316 q70 0 112 48t42 122q0 66 -42 110t-112 44h-196q-46 0 -70 -5t-36 -17q-12 -14 -13 -41t-1 -71v-190z" />
<glyph unicode="S" d="M76 484q-4 20 13 43t59 23q32 0 53 -19t21 -47q0 -96 73 -133t159 -37q108 0 173 45t65 125q0 74 -63 110t-171 36q-158 0 -246 79t-88 199q0 126 92 207t238 81q78 0 147 -17t119 -53q52 -36 82 -91t30 -131q0 -22 -21 -41t-45 -19q-30 0 -52 17t-22 43q0 42 -22 72 t-56 48t-76 27t-84 9q-68 0 -129 -36t-61 -116q0 -72 55 -108t139 -36q182 0 278 -75t96 -205q0 -140 -98 -223t-280 -83q-70 0 -138 19t-122 57t-86 96t-32 134z" />
<glyph unicode="T" d="M50 1106q0 26 16 48t36 22h698q24 0 44 -17t20 -57q0 -30 -19 -47t-47 -17h-278v-782q0 -30 -20 -48t-50 -18q-32 0 -53 18t-21 48v782h-274q-20 0 -36 19t-16 49z" />
<glyph unicode="U" d="M76 598v496q0 32 12 57t60 25q36 0 55 -25t19 -57v-482q0 -122 60 -202t172 -80q118 0 176 81t58 201v494q0 30 15 50t55 20q30 0 52 -22t22 -52v-504q0 -184 -105 -296t-273 -112q-172 0 -275 114t-103 294z" />
<glyph unicode="V" d="M77 1123q5 31 41 49q32 10 56 -8t44 -54l240 -712l242 712q6 42 32 55t58 3q32 -12 40 -41q5 -17 5 -35q0 -14 -3 -30l-262 -770q-50 -107 -112 -107q-4 0 -9 1q-67 8 -105 106l-264 770q-8 30 -3 61z" />
<glyph unicode="W" horiz-adv-x="1184" d="M76 732v374q0 30 21 50t55 20q32 0 52 -20t18 -50v-358q0 -88 7 -164t25 -132q18 -58 45 -90t67 -32q32 0 56 24t42 66q16 42 28 96t20 114l4 174v298q0 32 21 53t49 21t51 -19t23 -55v-298l4 -174q6 -56 17 -110t27 -96q18 -42 42 -68t58 -26q44 0 74 34t46 90 q16 58 23 134t7 160v358q0 30 20 50t56 20q30 0 50 -20t20 -50v-374q0 -256 -76 -399t-220 -143q-72 0 -133 47t-89 149q-30 -104 -89 -150t-131 -46q-132 0 -211 143t-79 399z" />
<glyph unicode="X" d="M76 1118q4 28 34 44q28 14 53 8t39 -28l252 -348l252 348q12 24 37 29t55 -9q26 -16 32 -44t-8 -52l-284 -392l284 -380q14 -20 7 -46t-35 -44q-30 -16 -53 -11t-35 31l-252 340l-248 -340q-14 -26 -37 -31t-53 11q-30 18 -36 44t10 46l280 380l-284 392q-14 24 -10 52z " />
<glyph unicode="Y" d="M72 1040v54q0 32 14 57t62 25q36 0 53 -25t17 -57v-42q0 -136 57 -210t171 -74q120 0 179 77t59 203v58q0 30 15 50t55 20q30 0 52 -22t22 -52v-62q0 -156 -75 -270t-237 -132v-382q0 -30 -20 -48t-50 -18q-32 0 -53 18t-21 48v382q-152 18 -226 131t-74 271z" />
<glyph unicode="Z" d="M75 318q7 34 35 68l534 652h-492q-42 0 -59 13t-17 55q0 36 17 53t59 17h550q108 0 133 -53q7 -15 7 -32q0 -42 -44 -95l-556 -666h512q40 0 59 -20t19 -50q0 -42 -25 -56t-53 -14h-548q-52 0 -84 18t-42 46q-8 19 -8 39q0 12 3 25z" />
<glyph unicode="[" horiz-adv-x="600" d="M116 98v1136q0 100 50 170t138 70h176q30 0 47 -21t17 -51q0 -36 -17 -53t-47 -17h-138q-42 0 -62 -27t-20 -77v-1122q0 -34 20 -60t50 -26h150q30 0 47 -19t17 -49q0 -36 -17 -55t-45 -19h-196q-60 0 -115 62t-55 158z" />
<glyph unicode="\" horiz-adv-x="1384" d="M32 748q0 24 17 47t37 23h82v288q0 30 21 50t53 20q36 0 55 -20t17 -50v-288h294v284q0 32 20 53t50 21q28 0 51 -19t23 -55v-284h298v288q0 30 20 50t54 20q32 0 52 -20t20 -50v-288h78q22 0 42 -18t20 -56q0 -30 -20 -49t-46 -19h-74q-8 -232 -85 -359t-209 -127 q-74 0 -135 47t-89 149q-32 -104 -90 -150t-130 -46q-128 0 -206 127t-84 359h-82q-20 0 -37 21t-17 51zM314 676q6 -146 39 -246t105 -100q32 0 56 24t42 66q16 42 28 96t20 114v46h-290zM752 676l4 -46q6 -56 17 -110t29 -96q16 -42 41 -68t59 -26q78 0 110 101t38 245 h-298z" />
<glyph unicode="]" horiz-adv-x="600" d="M108 -48q0 30 18 49t48 19h148q28 0 49 26t21 60v1122q0 50 -21 77t-59 27h-138q-30 0 -48 17t-18 53q0 30 18 51t48 21h176q84 0 135 -70t51 -170v-1136q0 -96 -55 -158t-115 -62h-196q-28 0 -45 19t-17 55z" />
<glyph unicode="^" horiz-adv-x="908" d="M79 1099q1 33 31 59l236 238q54 58 101 57t99 -57l236 -246q24 -26 23 -57t-29 -53q-24 -24 -51 -18t-51 36l-226 226l-242 -234q-22 -28 -54 -27t-50 19q-24 24 -23 57z" />
<glyph unicode="_" horiz-adv-x="900" d="M32 -124q0 30 19 51t47 21h696q28 0 49 -21t21 -51q0 -36 -21 -53t-49 -17h-696q-28 0 -47 17t-19 53z" />
<glyph unicode="`" horiz-adv-x="544" d="M124 1384q0 30 18 54t52 24q30 0 45 -16t33 -58l60 -228q0 -30 -21 -53t-57 -23q-30 0 -45 21t-25 51z" />
<glyph unicode="a" horiz-adv-x="992" d="M66 548q0 74 25 139t71 115q44 50 104 79t130 29q66 0 126 -29t104 -79q46 -50 72 -115t26 -139q0 -30 -6 -66t-14 -60q-6 -30 9 -61t53 -31q24 0 49 28t39 52t41 28t53 -14q14 -12 20 -45t-2 -45q-44 -68 -91 -106t-109 -38q-60 0 -93 22t-59 70q-38 -48 -101 -72 t-117 -24q-70 0 -130 28t-104 78q-46 48 -71 114t-25 142zM204 548q0 -44 15 -84t41 -70q28 -32 62 -50t74 -18q36 0 70 18t60 50q26 30 42 70t16 84q0 84 -58 152t-130 68q-78 0 -135 -68t-57 -152z" />
<glyph unicode="b" horiz-adv-x="812" d="M76 256v850q0 30 19 50t53 20q30 0 50 -20t20 -50v-280q36 36 86 60t106 24q68 0 128 -29t104 -79q46 -50 72 -115t26 -139q0 -76 -26 -142t-72 -114q-44 -50 -104 -78t-128 -28q-56 0 -106 23t-86 65v-18q0 -30 -20 -48t-50 -18q-34 0 -53 18t-19 48zM218 548 q0 -86 55 -154t137 -68q36 0 71 18t61 50q26 30 42 70t16 84q0 84 -58 152t-132 68q-82 0 -137 -68t-55 -152z" />
<glyph unicode="c" horiz-adv-x="756" d="M76 548q0 74 26 139t70 115q46 50 106 79t128 29q54 0 99 -18t81 -44q34 -24 59 -54t37 -54q6 -28 -2 -53t-36 -37q-24 -6 -47 3t-45 35q-28 38 -61 64t-85 26q-40 0 -74 -20t-60 -54q-26 -32 -40 -73t-14 -83q0 -90 55 -158t133 -68q52 0 92 30t64 66q16 30 33 40t53 4 q34 -16 40 -36t4 -52q-36 -78 -110 -133t-176 -55q-64 0 -124 27t-106 75t-73 114t-27 146z" />
<glyph unicode="d" horiz-adv-x="800" d="M66 548q0 74 25 139t71 115q44 50 104 79t130 29q50 0 100 -24t92 -62v282q0 30 19 50t51 20q30 0 51 -20t21 -50v-850q0 -30 -21 -48t-51 -18q-32 0 -51 18t-19 48v18q-42 -42 -92 -65t-100 -23q-70 0 -130 28t-104 78q-46 48 -71 114t-25 142zM204 548q0 -44 15 -84 t41 -70q28 -32 62 -50t74 -18q80 0 136 68t56 154q0 84 -56 152t-136 68q-78 0 -135 -68t-57 -152z" />
<glyph unicode="e" horiz-adv-x="800" d="M76 548q0 68 21 133t63 115q42 52 101 83t135 31q72 0 131 -26t101 -68t65 -96t23 -112q0 -94 -28 -114t-114 -20h-348q18 -52 57 -98t117 -46q48 0 101 17t95 47l10 1t24 -1t29 -11t25 -29q6 -24 -2 -43t-20 -33t-22 -20l-10 -6q-44 -32 -106 -47t-124 -15 q-76 0 -136 30t-102 82q-42 50 -64 114t-22 132zM220 604h336q8 0 14 6t6 18q0 56 -46 100t-134 44q-72 0 -119 -57t-57 -111z" />
<glyph unicode="f" horiz-adv-x="760" d="M72 678q0 32 19 52t45 20h96v188q0 112 67 175t173 63q108 0 178 -65t70 -173q0 -24 -18 -44t-52 -20q-32 0 -53 20t-21 44q0 40 -22 72t-78 32q-48 0 -74 -28t-26 -76v-188h242q24 0 43 -20t19 -52q0 -28 -19 -48t-43 -20h-242v-362q0 -26 -21 -44t-47 -18q-30 0 -53 19 t-23 43v362h-96q-28 0 -46 20t-18 48z" />
<glyph unicode="g" horiz-adv-x="824" d="M76 568q0 68 26 131t70 109q46 46 106 74t128 28t128 -28t104 -74q46 -46 72 -109t26 -131v-4v-372q0 -164 -94 -263t-236 -99q-58 0 -109 18t-91 50t-63 76t-23 94q0 36 22 55t48 19q30 0 50 -23t20 -47q0 -48 43 -75t103 -27q94 0 140 63t46 159v108q-42 -36 -89 -55 t-97 -19q-68 0 -128 27t-106 73q-44 46 -70 109t-26 133zM218 568q0 -78 57 -140t131 -62q36 0 70 17t60 45q28 28 44 64t16 76q0 36 -16 72t-44 64q-26 28 -60 46t-70 18q-38 0 -72 -18t-60 -46t-41 -64t-15 -72z" />
<glyph unicode="h" horiz-adv-x="796" d="M76 256v850q0 30 21 50t55 20q30 0 50 -20t20 -50v-288q26 42 74 67t114 25q148 0 227 -106t79 -256v-296q0 -30 -20 -48t-54 -18q-32 0 -51 18t-19 48v292q0 88 -41 158t-125 70q-78 0 -131 -72t-53 -186v-258q0 -30 -19 -48t-51 -18q-34 0 -55 18t-21 48z" />
<glyph unicode="i" horiz-adv-x="500" d="M79 1081q0 58 33 105q0 14 13 33t37 29q30 4 57 4q84 0 132 -43q63 -57 75 -133q3 -21 3 -41q0 -56 -24 -107q-33 -70 -97 -76q-10 -1 -21 -1q-55 0 -98 28q-51 33 -79 85q-31 55 -31 117zM196 220v500q0 26 18 48t52 22q32 0 53 -23t21 -47v-500q0 -26 -21 -48t-53 -22 q-34 0 -52 21t-18 49zM220 1083q-4 -21 2 -41q4 -22 19 -37t39 -11q2 0 7 15t5 35q-2 20 -12 39t-36 27h-2q-18 -6 -22 -27z" />
<glyph unicode="j" horiz-adv-x="824" d="M46 68q0 36 19 55t49 19t50 -23t20 -47q0 -48 43 -75t103 -27q94 0 140 63t46 159v472q0 36 16 61t54 25q42 0 58 -25t16 -61v-472q0 -164 -94 -263t-236 -99q-58 0 -109 18t-91 50q-38 32 -61 76t-23 94zM395 1042q0 59 33 106q0 12 12 31t38 31q30 4 56 4q85 0 133 -44 q63 -58 75 -136q2 -18 2 -36q0 -58 -25 -111q-33 -69 -97 -73q-10 -1 -21 -1q-55 0 -98 28q-51 33 -79 85q-29 54 -29 116zM535 1043q-5 -21 1 -41q6 -22 21 -38t39 -10q2 0 6 15t4 35t-10 39t-36 27h-2q-18 -6 -23 -27z" />
<glyph unicode="k" horiz-adv-x="800" d="M76 256v850q0 30 21 50t55 20q30 0 48 -20t18 -50v-428l350 206q32 18 65 22t53 -24q16 -27 16 -50q0 -12 -5 -23q-13 -31 -39 -43l-352 -198l376 -248q24 -14 31 -41t-11 -51q-14 -26 -42 -36t-52 8l-390 258v-202q0 -30 -18 -48t-48 -18q-34 0 -55 18t-21 48z" />
<glyph unicode="l" horiz-adv-x="420" d="M134 260v846q0 30 18 50t54 20q30 0 50 -20t20 -50v-846q0 -30 -20 -50t-50 -20q-36 0 -54 20t-18 50z" />
<glyph unicode="m" horiz-adv-x="1144" d="M76 260v334q0 162 78 239t204 77q70 0 128 -38t82 -88q24 50 85 88t125 38q114 0 197 -74t83 -242v-338q0 -30 -19 -48t-49 -18q-36 0 -55 18t-19 48v328q0 82 -34 133t-104 51q-78 0 -107 -58t-29 -154v-300q0 -30 -21 -48t-55 -18q-32 0 -51 18t-19 48v300 q0 96 -33 154t-105 58q-80 0 -108 -58t-28 -126v-324q0 -30 -20 -50t-50 -20q-34 0 -55 20t-21 50z" />
<glyph unicode="n" horiz-adv-x="800" d="M76 256v332q0 144 88 233t236 89q138 0 227 -87t89 -235v-332q0 -30 -20 -48t-54 -18q-32 0 -51 18t-19 48v284q0 92 -38 160t-134 68t-137 -65t-41 -163v-284q0 -30 -19 -48t-51 -18q-34 0 -55 18t-21 48z" />
<glyph unicode="o" horiz-adv-x="804" d="M76 548q0 74 26 139t70 115q46 50 106 79t128 29t128 -29t104 -79q46 -50 72 -115t26 -139q0 -76 -26 -142t-72 -114q-44 -50 -104 -78t-128 -28t-128 28t-106 78q-44 48 -70 114t-26 142zM218 548q0 -44 15 -84t41 -70q26 -32 60 -50t72 -18q36 0 71 18t61 50 q26 30 42 70t16 84q0 84 -58 152t-132 68t-131 -68t-57 -152z" />
<glyph unicode="p" horiz-adv-x="800" d="M76 -16v656q0 78 9 130t37 82q28 32 80 45t136 13h84q138 0 216 -83t78 -219q0 -144 -78 -223t-216 -79h-200v-322q0 -24 -22 -43t-52 -19t-51 18t-21 44zM222 446h200q64 0 109 41t45 121q0 76 -44 118t-110 42h-80q-46 0 -70 -4t-36 -16q-12 -14 -13 -40t-1 -72v-190z " />
<glyph unicode="q" horiz-adv-x="800" d="M76 608q0 136 77 219t217 83h84q84 0 135 -13t79 -45q28 -30 38 -82t10 -130v-656q0 -26 -21 -44t-49 -18q-32 0 -53 19t-21 43v322h-202q-140 0 -217 79t-77 223zM218 608q0 -80 43 -121t109 -41h202v190q0 46 -2 72t-14 40q-12 12 -37 16t-69 4h-80q-68 0 -110 -42 t-42 -118z" />
<glyph unicode="r" horiz-adv-x="756" d="M76 256v582q0 30 21 51t55 21q30 0 50 -21t20 -51v-20q26 40 73 66t115 26q104 0 169 -51t97 -119q2 -22 -5 -48t-37 -38q-28 -12 -56 1t-44 45q-18 30 -53 51t-71 21q-84 0 -136 -73t-52 -185v-258q0 -30 -19 -48t-51 -18q-34 0 -55 18t-21 48z" />
<glyph unicode="s" horiz-adv-x="800" d="M80 400q0 20 19 43t53 23q30 0 52 -23t22 -43q0 -34 46 -58t120 -24q82 0 133 24t51 62t-51 60t-129 22q-158 0 -235 63t-77 151q0 80 75 149t233 69q148 0 234 -66t86 -156q0 -30 -17 -46t-53 -16q-30 0 -52 16t-22 46q0 26 -18 42t-44 26t-57 14t-57 4q-60 0 -111 -17 t-51 -65t53 -67t109 -19q62 0 120 -13t102 -39t71 -66t27 -92q0 -108 -95 -165t-221 -57q-64 0 -122 16t-100 44q-44 28 -69 69t-25 89z" />
<glyph unicode="t" horiz-adv-x="824" d="M50 800q0 26 17 48t43 22h94v244q0 24 22 43t52 19t50 -18t20 -44v-244h246q24 0 43 -22t19 -48q0 -34 -19 -52t-43 -18h-246v-302q0 -50 31 -76t79 -26q54 0 84 29t30 73q0 28 20 47t46 19q28 0 51 -19t23 -47q0 -114 -73 -176t-185 -62q-106 0 -178 62t-72 176v302h-94 q-26 0 -43 18t-17 52z" />
<glyph unicode="u" horiz-adv-x="800" d="M76 510v332q0 30 19 49t53 19q32 0 53 -19t21 -49v-286q0 -102 41 -166t137 -64t134 67t38 163v286q0 30 19 49t51 19q34 0 54 -19t20 -49v-332q0 -148 -89 -234t-227 -86q-148 0 -236 88t-88 232z" />
<glyph unicode="v" horiz-adv-x="800" d="M57 848q1 38 37 58q15 5 29 5q21 0 37 -12q26 -19 44 -57l198 -460l206 460q18 38 40 56t56 8q36 -14 44 -48q3 -14 3 -27q0 -20 -7 -39l-228 -496q-53 -110 -110 -110h-2q-58 2 -112 110l-222 488q-13 24 -13 59v5z" />
<glyph unicode="w" horiz-adv-x="1196" d="M76 732v106q0 30 21 51t55 21q32 0 52 -21t18 -51v-90q0 -88 7 -164t25 -132q18 -58 45 -90t67 -32q32 0 56 24t42 66q16 42 28 96t20 114l4 204q0 32 21 54t49 22t51 -20t23 -56l4 -204q6 -56 17 -110t27 -96q18 -42 42 -68t58 -26q44 0 74 34t46 90q16 58 23 134t7 160 v90q0 30 20 51t56 21q30 0 50 -21t20 -51v-106q0 -256 -76 -399t-220 -143q-72 0 -133 47t-89 149q-30 -104 -89 -150t-131 -46q-132 0 -211 143t-79 399z" />
<glyph unicode="x" horiz-adv-x="800" d="M76 248q-2 26 14 46l216 250l-220 260q-14 22 -10 50t32 46q28 14 54 8t40 -30l194 -226l190 226q12 24 38 30t54 -8q26 -18 32 -46t-8 -52l-216 -254l220 -258q16 -22 10 -47t-34 -43q-30 -18 -55 -12t-37 32l-194 220l-190 -216q-14 -26 -42 -31t-56 11q-30 18 -32 44z " />
<glyph unicode="y" horiz-adv-x="800" d="M76 552v290q0 30 21 49t55 19q32 0 51 -19t19 -49v-248q0 -90 41 -159t137 -69t134 70t38 158v248q0 30 19 49t51 19q34 0 54 -19t20 -49v-650q0 -164 -94 -263t-234 -99q-58 0 -110 18t-92 52q-40 32 -63 75t-23 93q0 36 22 55t48 19q28 0 50 -23t22 -47q0 -48 43 -75 t103 -27q92 0 138 63t46 159v100q-36 -30 -80 -46t-92 -16q-148 0 -236 86t-88 236z" />
<glyph unicode="z" horiz-adv-x="800" d="M78 264q-4 13 -4 28q0 21 8 44q14 40 60 80l378 352h-364q-42 0 -59 14t-17 56q0 40 17 56t59 16h426q44 0 76 -16t46 -42t7 -61t-43 -73l-414 -388h376q44 0 65 -17t21 -47q0 -44 -26 -60t-52 -16h-432q-52 0 -85 20t-43 54z" />
<glyph unicode="{" horiz-adv-x="744" d="M116 708q0 36 18 53t48 17h28q72 0 84 54t12 162v264q0 102 57 178t147 76h128q24 0 47 -18t23 -52q0 -42 -21 -56t-45 -14h-100q-60 0 -77 -38t-17 -100v-278q0 -100 -12 -161t-78 -91q60 -32 75 -93t15 -159v-342q0 -60 14 -98t80 -38h92q28 0 49 -15t21 -55 q0 -34 -21 -52t-45 -18h-132q-104 0 -152 71t-48 183v336q0 48 -1 87t-11 67q-8 28 -28 44t-56 16h-28q-30 0 -48 17t-18 53z" />
<glyph unicode="|" horiz-adv-x="456" d="M156 -66v1456q0 28 19 50t53 22q32 0 53 -22t21 -50v-1456q0 -30 -21 -49t-53 -19q-34 0 -53 19t-19 49z" />
<glyph unicode="}" horiz-adv-x="744" d="M46 1442q0 34 22 52t46 18h128q90 0 148 -76t58 -178v-264q0 -108 11 -162t83 -54h28q30 0 48 -17t18 -53t-18 -53t-48 -17h-28q-38 0 -57 -16t-27 -44q-10 -28 -10 -67v-87v-336q0 -112 -49 -183t-153 -71h-132q-24 0 -44 18t-20 52q0 40 19 55t49 15h92q66 0 81 38 t15 98v342q0 98 13 159t75 93q-66 30 -77 92t-11 160v278q0 62 -19 100t-77 38h-100q-24 0 -44 14t-20 56z" />
<glyph unicode="~" horiz-adv-x="1256" d="M62 424q0 118 58 178t158 60q56 0 87 -30t53 -66t43 -66t57 -30q36 -6 69 14t61 52q28 34 48 74t28 76q-4 2 -6 6t-4 6q-2 4 -4 7t-2 9q-12 60 -57 109t-93 95q-50 46 -88 97t-38 117q0 84 34 123t86 45q50 6 108 -18t104 -66q6 48 22 98t52 90q48 52 98 62t92 -8 q42 -20 72 -63t38 -93q8 -70 -18 -158t-72 -176q-44 -86 -98 -161t-98 -117q-6 -76 -42 -146t-86 -122t-106 -78t-102 -10q-54 0 -83 28t-49 62q-22 34 -46 63t-68 29q-64 0 -77 -24t-13 -72q0 -36 -20 -54t-42 -18q-18 0 -37 22t-19 54zM256 1526q-12 22 1 44t35 34t48 10 t42 -28q0 -6 11 -28t25 -46q12 -26 25 -48t17 -30q8 -38 -2 -63t-30 -35t-44 -3t-42 35q-16 24 -26 42l-20 36q-10 16 -19 35t-21 45zM546 1184q-22 -20 14 -94q18 -46 50 -79t66 -65q36 -30 67 -63t51 -75q2 -8 8 -8t12 6q30 36 70 93t74 121q34 66 53 133t9 127 q-8 62 -54 68t-76 -56q-14 -36 -22 -58t-12 -42q-6 -20 -10 -42t-10 -54q-12 -42 -43 -49t-37 35q-10 30 -55 63t-89 45q-44 14 -66 -6zM596 1470l4 180q2 38 23 56t47 16q24 -2 45 -21t25 -53l-4 -180q-10 -34 -30 -49t-44 -13q-22 0 -41 17t-25 47z" />
<glyph unicode="&#xa1;" horiz-adv-x="1638" d="M484 192q-6 56 16 159t58 217q34 114 73 220t67 168q6 24 37 44t73 -18q56 -54 134 -156t146 -218q68 -118 110 -232t28 -192q-6 -34 -17 -61t-29 -49q-50 -48 -98 -53t-92 19q-42 24 -79 71t-61 101q-34 -78 -91 -136t-115 -72q-58 -16 -104 26t-56 162zM588 1244 q-10 78 23 148t99 78q66 4 116 -30t80 -86q28 -52 29 -112t-31 -106q-2 -16 -15 -35t-37 -29q-128 -20 -191 37t-73 135zM609 246q-7 -72 35 -86q20 -8 41 26t39 82q18 46 31 93t17 65q10 46 29 54t47 2q20 -6 37 -23t23 -47q2 -14 19 -52t39 -78t47 -73t43 -35t25 4t7 30 q4 54 -25 131t-75 159q-46 84 -101 165t-105 145q-26 -82 -66 -188t-70 -204t-37 -170zM700 1274q-2 -26 13 -52t57 -34l16 2q26 12 32 40t-2 56q-10 28 -32 47t-52 15q-12 -2 -22 -24t-10 -50z" />
<glyph unicode="&#xa4;" horiz-adv-x="1638" d="M216 182l184 190q-56 66 -85 147t-29 189q0 112 29 199t85 153l-184 190l96 96l182 -198q60 54 147 86t189 32q112 0 197 -32t139 -86l192 198l102 -96l-198 -190q60 -66 89 -153t29 -199q0 -108 -29 -189t-89 -147l198 -190l-102 -98l-184 186q-60 -50 -146 -78 t-198 -28q-108 0 -192 29t-144 83l-182 -192zM430 708q0 -84 32 -160t86 -132q54 -58 127 -91t155 -33t156 34t130 92q54 58 87 133t33 157q0 86 -33 163t-87 135q-56 58 -130 92t-156 34t-155 -34t-127 -92t-86 -135t-32 -163z" />
<glyph unicode="&#xa7;" horiz-adv-x="740" d="M118 780q0 72 44 112t94 46q-10 14 -26 39t-32 57t-27 71t-11 81q0 114 66 169t156 55q84 0 150 -56t66 -126q0 -38 -21 -63t-51 -25t-51 15t-33 39q-12 22 -15 49t3 49q-12 12 -30 20t-42 2q-30 -6 -47 -32t-17 -80q0 -60 42 -129t126 -135q72 -60 129 -133t57 -161 q0 -58 -18 -89t-40 -45q-24 -14 -43 -16t-21 -2q24 -30 52 -82t28 -118q0 -42 -12 -88t-38 -86q-28 -38 -72 -63t-110 -25q-96 0 -163 51t-67 123q0 36 21 58t51 22q52 0 83 -43t13 -85l15 -12t39 -12q36 0 62 31t26 73q0 60 -27 108t-67 92q-42 44 -89 88t-87 96 q-30 40 -48 79t-18 81zM248 796q2 -48 29 -88t61 -70t65 -47t43 -19q30 -6 50 13t14 51q-10 50 -36 87t-56 63q-32 24 -60 38t-38 18q-26 6 -49 -3t-23 -43z" />
<glyph unicode="&#xa8;" horiz-adv-x="1638" d="M274 1478q0 60 37 94t91 34q60 0 98 -34t38 -94q0 -54 -38 -91t-98 -37q-54 0 -91 37t-37 91zM1118 1478q0 60 37 94t91 34q60 0 97 -34t37 -94q0 -54 -37 -91t-97 -37q-54 0 -91 37t-37 91z" />
<glyph unicode="&#xaa;" horiz-adv-x="1638" d="M326 182v94h1012v-94h-1012zM406 678q-8 60 3 108t45 82q30 34 71 56t93 40l168 30l172 16q16 2 39 9t47 21q24 8 37 26t13 40q0 36 -15 67t-45 61q-30 26 -78 42t-114 16q-60 0 -108 -15t-80 -39q-36 -24 -52 -58t-12 -82h-136q-10 72 18 129t88 103q58 40 129 60 t153 20q74 0 141 -20t127 -56q60 -42 89 -99t29 -129v-470q0 -32 3 -54t11 -42l16 -48h-140q-6 8 -12 23t-8 33l-4 54q-10 -8 -23 -18t-29 -22t-37 -25t-45 -27q-48 -24 -100 -39t-106 -15q-70 -6 -130 4t-110 40q-52 30 -79 74t-29 104zM538 704q2 -36 20 -65t52 -45 q30 -14 69 -20t87 -2q60 2 116 21t108 63q48 32 76 66t28 62v168l-38 -18l-214 -38q-26 -4 -47 -6t-39 -4q-16 -4 -29 -6t-21 -4q-42 -14 -75 -30t-53 -38q-22 -26 -31 -49t-9 -55z" />
<glyph unicode="&#xad;" horiz-adv-x="1638" d="M358 682v130h934v-130h-934z" />
<glyph unicode="&#xae;" horiz-adv-x="1638" d="M48 708q0 162 61 303t167 245q108 104 250 165t304 61q158 0 298 -61t244 -165t165 -245t61 -303q0 -160 -61 -300t-165 -242q-104 -104 -244 -164t-298 -60q-162 0 -304 60t-250 164q-106 102 -167 242t-61 300zM174 716q0 -136 52 -255t140 -209t206 -141t250 -51 q134 0 252 51t206 141q86 90 137 209t51 255q0 132 -51 249t-137 205q-88 88 -206 140t-252 52q-132 0 -250 -52t-206 -140t-140 -205t-52 -249zM476 304v660q0 80 10 131t40 81q28 30 80 42t136 12h146q150 0 223 -86t73 -210q0 -76 -30 -144t-86 -100q52 -26 86 -93 t34 -157v-136q0 -30 -22 -46t-52 -16t-49 16t-19 46v140q0 84 -50 133t-130 49h-246v-322q0 -22 -18 -42t-56 -20q-32 0 -51 20t-19 42zM620 764h268q72 0 113 48t41 122q0 66 -41 110t-113 44h-146q-46 0 -71 -4t-37 -18t-13 -40t-1 -70v-192z" />
<glyph unicode="&#xb0;" horiz-adv-x="494" d="M52 1308q0 82 58 140t142 58q82 0 136 -58t54 -140q0 -80 -54 -137t-136 -57q-84 0 -142 57t-58 137zM164 1308q0 -38 22 -63t66 -25q36 0 62 25t26 63q0 34 -26 64t-62 30q-44 0 -66 -30t-22 -64z" />
<glyph unicode="&#xb1;" horiz-adv-x="1638" d="M330 200v120h1000v-120h-1000zM330 784v120h432v334h136v-334h432v-120h-432v-344h-136v344h-432z" />
<glyph unicode="&#xb2;" horiz-adv-x="696" d="M72 1274q0 56 25 103t65 81t89 54t97 20q110 0 196 -75t86 -219q0 -156 -83 -229t-203 -73h-40v-94q0 -14 6 -21t20 -7h232q26 0 43 -19t17 -47q0 -30 -17 -49t-47 -19h-270q-70 0 -95 31t-25 97v144q0 64 33 91t113 27h14h12q70 0 112 37t42 131q0 72 -39 115t-103 43 q-62 0 -104 -31t-42 -95q0 -36 -16 -53t-56 -17q-32 0 -47 16t-15 58z" />
<glyph unicode="&#xb3;" horiz-adv-x="696" d="M90 938q0 34 15 48t45 14q34 0 54 -14t20 -40q0 -54 28 -85t108 -31q60 0 97 30t37 92q0 66 -33 95t-101 29h-30q-36 0 -50 18t-14 42q0 30 15 47t49 17h30q74 0 99 28t25 90q0 48 -23 79t-101 31t-99 -36t-21 -82q0 -30 -15 -48t-51 -18q-38 0 -51 21t-13 45 q0 102 54 176t196 74q126 0 188 -66t62 -176q0 -60 -24 -108t-66 -72q48 -14 79 -64t31 -122q0 -122 -76 -188t-194 -66q-132 0 -201 66t-69 174z" />
<glyph unicode="&#xb4;" horiz-adv-x="1638" d="M582 1036l184 462h224l-288 -462h-120z" />
<glyph unicode="&#xb6;" horiz-adv-x="1638" d="M400 1140q0 68 26 126t70 100q42 42 100 67t122 25h342v-1502h-96v1414h-118v-1414h-96v856q-168 0 -259 95t-91 233z" />
<glyph unicode="&#xb7;" horiz-adv-x="1638" d="M702 888q0 60 37 93t91 33q60 0 97 -33t37 -93q0 -54 -37 -92t-97 -38q-54 0 -91 38t-37 92z" />
<glyph unicode="&#xb8;" horiz-adv-x="582" d="M84 -150l32 46q30 -18 71 -24t65 -6q36 6 70 21t34 51q0 24 -27 35t-45 11q-24 0 -40 -7l-16 -7l-40 48l112 126l136 -38l-24 -26q54 -18 80 -55t32 -71q0 -72 -64 -116t-160 -44q-66 0 -123 15t-93 41z" />
<glyph unicode="&#xb9;" horiz-adv-x="696" d="M152 1406q0 34 19 53t49 19h146q30 0 52 -21t22 -51v-644q0 -26 -22 -47t-52 -21q-36 0 -53 20t-17 48v574h-76q-30 0 -49 19t-19 51z" />
<glyph unicode="&#xba;" horiz-adv-x="1638" d="M326 186v94h1008v-94h-1008zM406 952q0 96 27 178t81 152t131 107t173 37t170 -37t132 -107t87 -152t29 -178q0 -94 -29 -176t-87 -148t-132 -97t-170 -31t-173 31t-131 97t-81 148t-27 176zM538 952q0 -74 18 -137t58 -111q38 -52 89 -77t115 -25q60 0 112 25t96 77 q42 48 63 111t21 137q0 72 -21 137t-63 123q-44 52 -95 81t-113 29q-64 0 -115 -29t-89 -81q-40 -58 -58 -123t-18 -137z" />
<glyph unicode="&#xbc;" horiz-adv-x="1638" d="M180 119q0 33 18 55l1118 1310q18 26 48 38t64 -12q20 -24 18 -55t-16 -55l-1106 -1304q-30 -34 -63 -41t-57 13q-24 18 -24 51zM272 1526q0 34 19 52t47 18h148q30 0 53 -20t23 -50v-642q0 -30 -23 -50t-53 -20q-36 0 -53 20t-17 50v572h-78q-28 0 -47 19t-19 51z M966 362l110 390q10 30 26 44t46 14t49 -26t11 -62l-104 -340q-8 -48 5 -68t73 -20h128v402q0 28 18 48t48 20q32 0 52 -20t20 -48v-398h54q30 0 49 -16t19 -50q0 -32 -19 -51t-49 -19h-54v-148q0 -26 -20 -45t-52 -19q-30 0 -48 18t-18 46v144h-144q-106 0 -162 49t-38 155 z" />
<glyph unicode="&#xbd;" horiz-adv-x="1638" d="M180 119q0 33 18 55l1118 1310q18 26 48 38t64 -12q20 -24 18 -55t-16 -55l-1106 -1304q-30 -34 -63 -41t-57 13q-24 18 -24 51zM272 1526q0 34 19 52t47 18h148q30 0 53 -20t23 -50v-642q0 -30 -23 -50t-53 -20q-36 0 -53 20t-17 50v572h-78q-28 0 -47 19t-19 51z M970 536q0 54 25 102t65 82t90 54t100 20q54 0 104 -19t90 -57q38 -36 62 -91t24 -127q0 -156 -84 -229t-200 -73h-42v-92q0 -18 5 -25t19 -7h232q30 0 47 -19t17 -45q0 -30 -18 -49t-50 -19h-266q-70 0 -96 30t-26 96v144q0 64 33 91t111 27h30q70 0 111 38t41 132 q0 72 -38 115t-102 43q-62 0 -104 -31t-42 -95q0 -36 -16 -53t-58 -17q-32 0 -48 16t-16 58z" />
<glyph unicode="&#xbe;" horiz-adv-x="1638" d="M152 990q0 34 14 49t44 15q34 0 54 -15t20 -41q0 -56 29 -86t109 -30q60 0 97 29t37 91q0 66 -33 97t-101 31h-30q-36 0 -50 17t-14 39q0 32 15 49t49 17h30q74 0 98 29t24 89q0 46 -22 78t-100 32t-99 -36t-21 -82q0 -30 -16 -47t-50 -17q-38 0 -51 19t-13 45 q0 102 54 176t196 74q126 0 188 -67t62 -175q0 -58 -24 -107t-64 -75q48 -16 78 -65t30 -121q0 -122 -76 -188t-194 -66q-132 0 -201 66t-69 176zM180 119q0 33 18 55l1118 1310q18 26 48 38t64 -12q20 -24 18 -55t-16 -55l-1106 -1304q-30 -34 -63 -41t-57 13 q-24 18 -24 51zM966 362l110 390q10 30 26 44t46 14t49 -26t11 -62l-96 -340q-8 -42 6 -65t64 -23h128v402q0 28 18 48t48 20q32 0 52 -20t20 -48v-398h54q30 0 49 -16t19 -50q0 -32 -19 -51t-49 -19h-54v-148q0 -26 -20 -45t-52 -19q-30 0 -48 18t-18 46v144h-144 q-106 0 -162 49t-38 155z" />
<glyph unicode="&#xbf;" horiz-adv-x="1638" d="M480 440q0 84 27 146t71 102q46 40 105 61t123 21v144q0 38 15 59t59 21q38 0 55 -22t17 -58v-156q0 -70 -21 -97t-101 -27h-16q-84 0 -139 -49t-55 -145q0 -98 67 -144t151 -46q96 0 156 42t60 132q0 36 18 55t60 19q36 0 50 -17t14 -61q0 -78 -30 -136t-80 -98 q-50 -38 -115 -57t-133 -19q-62 0 -126 19t-116 61q-52 40 -84 102t-32 148zM700 1248q-10 78 23 148t99 78q66 4 117 -30t79 -86t29 -112t-31 -106q-2 -14 -15 -34t-39 -30q-128 -20 -190 37t-72 135zM812 1278q2 -28 18 -53t56 -33q2 0 7 2t7 4q20 8 25 36t-3 56 q-8 26 -28 46t-50 16q-12 -4 -22 -26t-10 -48z" />
<glyph unicode="&#xc6;" horiz-adv-x="1638" d="M76 200l484 1202h954v-120h-732l160 -402h538v-118h-490l184 -442h346v-120h-438l-124 304h-624l-128 -304h-130zM382 628h528l-268 646z" />
<glyph unicode="&#xd0;" horiz-adv-x="1638" d="M170 744v106h272v552h392q128 0 230 -43t182 -131q74 -92 112 -200t38 -236q0 -130 -38 -236t-112 -196q-80 -88 -182 -129t-230 -35h-392v548h-272zM582 320h226q108 0 191 32t137 104q54 68 84 154t30 182q0 100 -30 188t-84 160q-54 70 -134 106t-188 36h-232v-432 h382v-106h-382v-424z" />
<glyph unicode="&#xd7;" horiz-adv-x="1638" d="M358 332l384 372l-368 370l88 92l364 -374l368 366l86 -84l-366 -370l398 -384l-88 -92l-398 392l-376 -376z" />
<glyph unicode="&#xd8;" horiz-adv-x="1638" d="M274 792q0 144 36 258t108 204q72 84 173 130t227 46q42 0 84 -9t84 -23q38 -12 74 -32t72 -44l142 204l68 -48l-142 -208q42 -42 75 -94t59 -112q22 -64 34 -132t12 -140q0 -146 -39 -259t-117 -197t-179 -128t-227 -44q-42 0 -84 6t-84 20q-42 10 -81 30t-71 46 l-144 -206l-68 50l148 214q-42 38 -72 91t-46 113q-24 60 -33 126t-9 138zM422 792q0 -54 4 -101t16 -93q8 -42 27 -82t49 -82l538 790q-24 22 -50 36t-56 26q-30 10 -64 16t-72 6q-96 0 -169 -35t-123 -107q-52 -74 -76 -168t-24 -206zM570 364q26 -24 56 -38t60 -26 q28 -10 62 -13t70 -3q96 0 170 35t130 105q54 66 82 160t28 208q0 54 -8 104t-20 98q-12 40 -32 80t-48 80z" />
<glyph unicode="&#xde;" horiz-adv-x="1638" d="M400 196v1206h134v-350q32 34 68 64t76 54q38 14 80 26t84 12q90 0 166 -32t136 -98t91 -151t31 -183q0 -108 -31 -189t-91 -143q-60 -64 -136 -96t-166 -32q-42 0 -84 7t-80 29q-40 14 -76 41t-68 67v-232h-134zM534 744q0 -88 19 -151t57 -101q36 -48 89 -66t119 -18 t118 19t94 73q38 42 59 102t21 142q0 70 -21 131t-59 109q-42 48 -94 75t-118 27t-119 -25t-89 -67q-38 -52 -57 -115t-19 -135z" />
<glyph unicode="&#xdf;" horiz-adv-x="1638" d="M480 160v938q0 90 28 150t78 104q42 40 99 63t151 23q74 0 136 -25t110 -63q42 -48 67 -97t29 -103q2 -74 -15 -128t-53 -88q-42 -36 -71 -58t-49 -34q18 -4 52 -26t82 -58q48 -38 70 -99t22 -145q0 -72 -26 -131t-76 -103q-54 -48 -127 -69t-169 -21h-60v122h40 q48 0 93 9t89 27q44 20 69 65t25 119q0 72 -25 122t-73 74q-48 22 -92 32t-86 10h-36v126h24q50 0 94 12t80 34q36 24 55 64t19 100t-18 103t-52 65q-36 22 -72 33t-78 11q-52 0 -90 -16t-62 -44q-24 -36 -36 -72t-12 -80v-946h-134z" />
<glyph unicode="&#xe6;" horiz-adv-x="1638" d="M203 362q-19 98 33 186q32 56 82 83t104 39t105 15t87 15q40 12 70 38t30 74q0 78 -40 128t-132 50q-90 0 -124 -52t-40 -114h-142q12 56 33 106t57 88q34 36 87 58t129 22q94 0 155 -41t103 -101q42 54 97 98t159 44q66 0 124 -29t108 -89q48 -60 73 -158t23 -234h-530 q0 -66 15 -121t45 -99q30 -42 65 -65t73 -23q40 0 69 10t53 34q18 18 31 41t19 51h136q-12 -46 -36 -88t-58 -84q-42 -42 -95 -63t-119 -21q-48 0 -90 12t-78 36q-36 26 -62 55t-36 69q-22 -42 -52 -75t-72 -57q-92 -52 -195 -51t-171 55q-74 60 -93 158zM330 400 q12 -66 55 -97t97 -31q48 0 91 23t73 57q32 34 50 70t18 62v152q-26 -12 -65 -20t-81 -16q-40 -6 -75 -12t-51 -8q-76 -18 -99 -74t-13 -106zM854 696h392q-12 116 -56 200t-138 84t-139 -86t-59 -198z" />
<glyph unicode="&#xf0;" horiz-adv-x="1638" d="M382 674l720 -2q-10 76 -36 131t-70 103l-192 -158l-58 82l152 130q-18 4 -39 9t-33 7q-58 0 -100 -14t-68 -36q-28 -26 -43 -50t-21 -38h-176q12 46 42 91t78 89q44 44 115 66t167 22q60 0 108 -15t84 -33l192 162l74 -80l-164 -138q32 -36 61 -74t53 -86 q24 -52 37 -104t13 -106q0 -102 -33 -188t-91 -152q-64 -66 -147 -97t-185 -31q-90 0 -169 30t-147 90q-70 60 -100 159t-24 231zM550 564q0 -64 20 -113t56 -87q36 -34 86 -53t110 -19q56 0 103 17t89 47q34 36 56 86t28 122h-548z" />
<glyph unicode="&#xf7;" horiz-adv-x="1638" d="M316 648v126h1022v-126h-1022zM714 300q0 48 31 82t77 34q60 0 92 -33t32 -71q0 -48 -35 -80t-77 -32q-54 0 -87 27t-33 73zM714 1106q0 54 31 86t77 32q60 0 88 -32t28 -72q0 -54 -31 -84t-73 -30q-48 0 -84 28t-36 72z" />
<glyph unicode="&#xf8;" horiz-adv-x="1638" d="M382 636q0 96 28 181t88 155q60 66 141 100t187 34l108 -12q28 -10 55 -23t51 -27l96 142l76 -54l-92 -134q36 -36 63 -75t49 -85q22 -52 34 -102t12 -104q0 -100 -33 -187t-91 -153q-64 -66 -147 -99t-185 -33q-34 0 -66 3t-62 13t-59 22t-53 30l-80 -116l-80 52l84 120 q-30 32 -54 70t-38 86q-18 44 -25 94t-7 102zM542 636q0 -36 3 -67t11 -55q4 -24 15 -49t27 -45l362 514q-18 12 -52 28t-84 14q-68 -4 -118 -30t-88 -68q-40 -48 -58 -108t-18 -134zM666 344q32 -24 63 -38t91 -14q66 0 117 23t93 69q38 48 59 109t21 139q0 72 -20 133 t-52 107z" />
<glyph unicode="&#xfe;" horiz-adv-x="1638" d="M414 0v1418h152v-450q20 30 53 54t75 42t84 28t92 10q92 0 168 -32t136 -98t89 -152t29 -188t-29 -188t-89 -152t-136 -97t-172 -31q-48 0 -91 9t-85 27q-42 20 -74 43t-50 53v-296h-152zM566 636q0 -82 18 -144t54 -104t85 -65t115 -23q68 0 121 24t89 72q36 42 56 101 t20 135q0 72 -20 132t-56 108q-36 46 -88 71t-118 25t-117 -24t-87 -64q-36 -42 -54 -103t-18 -141z" />
<glyph unicode="&#x152;" horiz-adv-x="1638" d="M86 800q0 134 34 242t104 192q68 86 163 127t219 41h912v-120h-616v-398h582v-122h-582v-442h626v-124h-922q-120 0 -215 40t-163 124q-72 80 -107 191t-35 249zM220 800q0 -108 23 -197t77 -155q50 -66 124 -97t170 -31h156v962h-160q-96 0 -168 -35t-122 -99 q-54 -66 -77 -154t-23 -194z" />
<glyph unicode="&#x153;" horiz-adv-x="1638" d="M210 632q0 94 22 177t68 155q42 68 106 103t150 35q40 0 81 -13t81 -37q36 -30 64 -64t52 -74q18 36 47 70t65 64q36 28 76 41t88 13q66 0 127 -32t117 -98q54 -66 77 -163t17 -221h-534q0 -66 14 -121t44 -99q30 -42 63 -65t71 -23t68 10t50 34q18 18 33 42t21 54h148 q-12 -48 -37 -93t-59 -83q-38 -44 -94 -64t-126 -20q-44 0 -85 10t-79 38q-44 26 -73 60t-47 76q-20 -42 -46 -76t-62 -60q-36 -28 -80 -38t-92 -10q-78 0 -141 31t-105 101q-46 68 -68 154t-22 186zM354 632q0 -76 12 -139t40 -113q26 -48 62 -74t78 -26q48 0 85 26t67 74 q26 50 41 113t15 135t-15 133t-41 115q-30 48 -64 76t-74 28q-50 0 -89 -28t-65 -76q-28 -54 -40 -115t-12 -129zM918 696h382q-4 52 -17 103t-37 93q-26 40 -58 64t-74 24q-44 0 -77 -21t-61 -59q-26 -42 -41 -92t-17 -112z" />
<glyph unicode="&#x2000;" horiz-adv-x="861" />
<glyph unicode="&#x2001;" horiz-adv-x="1722" />
<glyph unicode="&#x2002;" horiz-adv-x="861" />
<glyph unicode="&#x2003;" horiz-adv-x="1722" />
<glyph unicode="&#x2004;" horiz-adv-x="574" />
<glyph unicode="&#x2005;" horiz-adv-x="430" />
<glyph unicode="&#x2006;" horiz-adv-x="287" />
<glyph unicode="&#x2007;" horiz-adv-x="287" />
<glyph unicode="&#x2008;" horiz-adv-x="215" />
<glyph unicode="&#x2009;" horiz-adv-x="344" />
<glyph unicode="&#x200a;" horiz-adv-x="95" />
<glyph unicode="&#x2010;" d="M76 682q0 32 19 52t49 20h622q28 0 49 -20t21 -52q0 -34 -21 -51t-49 -17h-622q-30 0 -49 17t-19 51z" />
<glyph unicode="&#x2011;" d="M76 682q0 32 19 52t49 20h622q28 0 49 -20t21 -52q0 -34 -21 -51t-49 -17h-622q-30 0 -49 17t-19 51z" />
<glyph unicode="&#x2012;" d="M76 682q0 32 19 52t49 20h622q28 0 49 -20t21 -52q0 -34 -21 -51t-49 -17h-622q-30 0 -49 17t-19 51z" />
<glyph unicode="&#x2013;" horiz-adv-x="1184" d="M76 682q0 32 25.5 52t66.5 20h838q37 0 65.5 -20t28.5 -52q0 -34 -28.5 -51t-65.5 -17h-838q-41 0 -66.5 17t-25.5 51z" />
<glyph unicode="&#x2014;" horiz-adv-x="2208" d="M76 682q0 32 51 52t132 20h1676q76 0 132.5 -20t56.5 -52q0 -34 -56.5 -51t-132.5 -17h-1676q-81 0 -132 17t-51 51z" />
<glyph unicode="&#x2018;" horiz-adv-x="450" d="M150 1338q0 82 18 112t54 30q42 0 64 -28t22 -94q0 -42 -3 -97t-9 -105q-8 -50 -22 -84t-38 -34q-30 0 -48 33t-26 81q-8 46 -10 98t-2 88z" />
<glyph unicode="&#x2019;" horiz-adv-x="450" d="M146 1338q0 82 18 112t54 30q42 0 64 -28t22 -94q0 -42 -3 -97t-11 -105t-22 -84t-36 -34q-30 0 -48 33t-26 81q-8 46 -10 98t-2 88z" />
<glyph unicode="&#x201c;" horiz-adv-x="704" d="M136 1384q0 82 18 111t52 29q42 0 64 -27t22 -93q0 -42 -3 -97t-9 -105q-8 -50 -22 -85t-36 -35q-30 0 -48 33t-26 81q-8 46 -10 98t-2 90zM412 1384q0 82 18 111t52 29q42 0 64 -27t22 -93q0 -42 -3 -97t-9 -105q-8 -50 -22 -85t-36 -35q-30 0 -48 33t-26 81 q-8 46 -10 98t-2 90z" />
<glyph unicode="&#x201d;" horiz-adv-x="704" d="M134 1384q0 82 18 111t52 29q42 0 64 -27t22 -93q0 -42 -3 -97t-9 -105q-8 -50 -22 -85t-36 -35q-30 0 -48 33t-26 81q-8 46 -10 98t-2 90zM410 1384q0 82 18 111t52 29q42 0 64 -27t22 -93q0 -42 -3 -97t-9 -105q-8 -50 -22 -85t-36 -35q-30 0 -48 33t-26 81 q-8 46 -10 98t-2 90z" />
<glyph unicode="&#x2026;" horiz-adv-x="1638" d="M160 888q0 60 36 93t90 33q60 0 98 -33t38 -93q0 -54 -38 -92t-98 -38q-54 0 -90 38t-36 92zM714 888q0 60 37 93t91 33q60 0 97 -33t37 -93q0 -54 -37 -92t-97 -38q-54 0 -91 38t-37 92zM1258 888q0 60 36 93t90 33q60 0 98 -33t38 -93q0 -54 -38 -92t-98 -38 q-54 0 -90 38t-36 92z" />
<glyph unicode="&#x202f;" horiz-adv-x="344" />
<glyph unicode="&#x205f;" horiz-adv-x="430" />
<glyph unicode="&#x20ac;" horiz-adv-x="1638" d="M288 588q0 30 18 50t48 20h102l-4 58l4 48h-102q-30 0 -48 20t-18 54q0 32 18 52t48 20h132q52 126 164 211t256 85q118 0 208 -56t152 -142q18 -28 10 -57t-34 -45q-34 -12 -55 -2t-33 32q-42 52 -108 92t-140 40q-80 0 -148 -46t-106 -112h290q26 0 48 -20t22 -52 q0 -34 -23 -54t-47 -20h-344q-6 -12 -6 -24v-24l4 -58h346q26 0 48 -20t22 -50q0 -36 -23 -56t-47 -20h-286q42 -72 108 -111t142 -39q80 0 154 48t122 132q22 20 41 22t45 -12q18 -24 19 -50t-5 -58q-66 -98 -162 -158t-214 -60q-142 0 -252 80t-164 206h-136q-30 0 -48 20 t-18 56z" />
<glyph unicode="&#x2122;" horiz-adv-x="1638" d="M172 1578q0 36 17 53t51 17h498q20 0 41 -17t21 -53q0 -32 -20 -49t-38 -17h-194v-506q0 -30 -18 -50t-54 -20q-28 0 -42 20t-14 50v506h-192q-24 0 -40 17t-16 49zM824 1030v270q0 160 39 256t139 96q42 0 77 -26t53 -74q18 48 53 74t93 26q102 0 142 -104t38 -256v-286 q0 -30 -20 -50t-50 -20t-50 20t-20 50v280q0 88 -6 157t-38 69q-50 0 -58 -70t-8 -184v-240q0 -24 -16 -50t-52 -28q-26 0 -45 24t-19 54v240q0 116 -16 185t-54 69q-22 0 -31 -18t-13 -48t-3 -69t1 -81v-266q0 -32 -15 -59t-61 -27q-26 0 -43 27t-17 59z" />
<glyph unicode="&#x25fc;" horiz-adv-x="910" d="M0 0v910h910v-910h-910z" />
</font>
</defs>
</svg>
